<svg xmlns="http://www.w3.org/2000/svg" width="600" height="800" viewBox="0 0 600 800"><defs><linearGradient id="gold" x1="0" y1="0" x2="1" y2="1"><stop offset="0" stop-color="#9C6B1E"/><stop offset=".35" stop-color="#F1CF7A"/><stop offset=".6" stop-color="#B8862E"/><stop offset="1" stop-color="#E6BE62"/></linearGradient><linearGradient id="brass" x1="0" y1="0" x2="1" y2="0"><stop offset="0" stop-color="#8A5A12"/><stop offset=".45" stop-color="#F0C766"/><stop offset="1" stop-color="#9A6A1C"/></linearGradient><linearGradient id="leafg" x1="0" y1="0" x2="1" y2="1"><stop offset="0" stop-color="#7DB548"/><stop offset="1" stop-color="#2F6E2E"/></linearGradient><radialGradient id="pinkg" cx=".5" cy=".85" r=".9"><stop offset="0" stop-color="#FFF0F4"/><stop offset=".55" stop-color="#F5A3BC"/><stop offset="1" stop-color="#D9467A"/></radialGradient><radialGradient id="flame" cx=".5" cy=".7" r=".6"><stop offset="0" stop-color="#FFF7C2"/><stop offset=".6" stop-color="#FFB627"/><stop offset="1" stop-color="#F26A1B" stop-opacity="0"/></radialGradient><filter id="paper" x="0" y="0" width="100%" height="100%"><feTurbulence type="fractalNoise" baseFrequency=".9" numOctaves="2" seed="4" result="n"/><feColorMatrix in="n" type="matrix" values="0 0 0 0 .55  0 0 0 0 .45  0 0 0 0 .3  0 0 0 .09 0"/><feComposite in2="SourceGraphic" operator="in"/></filter><filter id="soft"><feGaussianBlur stdDeviation="18"/></filter><filter id="shadow" x="-20%" y="-20%" width="140%" height="140%"><feDropShadow dx="0" dy="2" stdDeviation="2" flood-opacity=".25"/></filter><radialGradient id="pg" cx=".5" cy=".45" r=".8"><stop offset="0" stop-color="#FFF7EC"/><stop offset="1" stop-color="#F8E3CF"/></radialGradient></defs><rect width="600" height="800" fill="url(#pg)"/><circle cx="60" cy="120" r="170" fill="#BFE3D6" opacity="0.6" filter="url(#soft)"/><circle cx="560" cy="640" r="170" fill="#F9D2DC" opacity="0.55" filter="url(#soft)"/><circle cx="300" cy="800" r="220" fill="#CFE8EF" opacity="0.6" filter="url(#soft)"/><rect width="600" height="800" fill="#fff" filter="url(#paper)"/><g opacity="0.1"><path d="M451.2 480 Q480.6 509.4 510 480 Q480.6 450.6 451.2 480" fill="none" stroke="#C9A24A" stroke-width="1.1"/><path d="M439.7 537.9 Q455.6 576.3 494 560.4 Q478.1 522 439.7 537.9" fill="none" stroke="#C9A24A" stroke-width="1.1"/><path d="M406.9 586.9 Q406.9 628.5 448.5 628.5 Q448.5 586.9 406.9 586.9" fill="none" stroke="#C9A24A" stroke-width="1.1"/><path d="M357.9 619.7 Q342 658.1 380.4 674 Q396.3 635.6 357.9 619.7" fill="none" stroke="#C9A24A" stroke-width="1.1"/><path d="M300 631.2 Q270.6 660.6 300 690 Q329.4 660.6 300 631.2" fill="none" stroke="#C9A24A" stroke-width="1.1"/><path d="M242.1 619.7 Q203.7 635.6 219.6 674 Q258 658.1 242.1 619.7" fill="none" stroke="#C9A24A" stroke-width="1.1"/><path d="M193.1 586.9 Q151.5 586.9 151.5 628.5 Q193.1 628.5 193.1 586.9" fill="none" stroke="#C9A24A" stroke-width="1.1"/><path d="M160.3 537.9 Q121.9 522 106 560.4 Q144.4 576.3 160.3 537.9" fill="none" stroke="#C9A24A" stroke-width="1.1"/><path d="M148.8 480 Q119.4 450.6 90 480 Q119.4 509.4 148.8 480" fill="none" stroke="#C9A24A" stroke-width="1.1"/><path d="M160.3 422.1 Q144.4 383.7 106 399.6 Q121.9 438 160.3 422.1" fill="none" stroke="#C9A24A" stroke-width="1.1"/><path d="M193.1 373.1 Q193.1 331.5 151.5 331.5 Q151.5 373.1 193.1 373.1" fill="none" stroke="#C9A24A" stroke-width="1.1"/><path d="M242.1 340.3 Q258 301.9 219.6 286 Q203.7 324.4 242.1 340.3" fill="none" stroke="#C9A24A" stroke-width="1.1"/><path d="M300 328.8 Q329.4 299.4 300 270 Q270.6 299.4 300 328.8" fill="none" stroke="#C9A24A" stroke-width="1.1"/><path d="M357.9 340.3 Q396.3 324.4 380.4 286 Q342 301.9 357.9 340.3" fill="none" stroke="#C9A24A" stroke-width="1.1"/><path d="M406.9 373.1 Q448.5 373.1 448.5 331.5 Q406.9 331.5 406.9 373.1" fill="none" stroke="#C9A24A" stroke-width="1.1"/><path d="M439.7 422.1 Q478.1 438 494 399.6 Q455.6 383.7 439.7 422.1" fill="none" stroke="#C9A24A" stroke-width="1.1"/><circle cx="300" cy="480" r="210" fill="none" stroke="#C9A24A" stroke-width=".8"/><path d="M417.1 494.4 Q437 519.9 462.6 500 Q442.6 474.4 417.1 494.4" fill="none" stroke="#C9A24A" stroke-width="1.1"/><path d="M406.9 529.8 Q418 560.3 448.5 549.2 Q437.4 518.7 406.9 529.8" fill="none" stroke="#C9A24A" stroke-width="1.1"/><path d="M386.3 560.4 Q387.4 592.8 419.8 591.7 Q418.7 559.3 386.3 560.4" fill="none" stroke="#C9A24A" stroke-width="1.1"/><path d="M357.2 583.1 Q348.2 614.3 379.4 623.3 Q388.4 592.1 357.2 583.1" fill="none" stroke="#C9A24A" stroke-width="1.1"/><path d="M322.5 595.8 Q304.4 622.7 331.3 640.8 Q349.4 613.9 322.5 595.8" fill="none" stroke="#C9A24A" stroke-width="1.1"/><path d="M285.6 597.1 Q260.1 617 280 642.6 Q305.6 622.6 285.6 597.1" fill="none" stroke="#C9A24A" stroke-width="1.1"/><path d="M250.2 586.9 Q219.7 598 230.8 628.5 Q261.3 617.4 250.2 586.9" fill="none" stroke="#C9A24A" stroke-width="1.1"/><path d="M219.6 566.3 Q187.2 567.4 188.3 599.8 Q220.7 598.7 219.6 566.3" fill="none" stroke="#C9A24A" stroke-width="1.1"/><path d="M196.9 537.2 Q165.7 528.2 156.7 559.4 Q187.9 568.4 196.9 537.2" fill="none" stroke="#C9A24A" stroke-width="1.1"/><path d="M184.2 502.5 Q157.3 484.4 139.2 511.3 Q166.1 529.4 184.2 502.5" fill="none" stroke="#C9A24A" stroke-width="1.1"/><path d="M182.9 465.6 Q163 440.1 137.4 460 Q157.4 485.6 182.9 465.6" fill="none" stroke="#C9A24A" stroke-width="1.1"/><path d="M193.1 430.2 Q182 399.7 151.5 410.8 Q162.6 441.3 193.1 430.2" fill="none" stroke="#C9A24A" stroke-width="1.1"/><path d="M213.7 399.6 Q212.6 367.2 180.2 368.3 Q181.3 400.7 213.7 399.6" fill="none" stroke="#C9A24A" stroke-width="1.1"/><path d="M242.8 376.9 Q251.8 345.7 220.6 336.7 Q211.6 367.9 242.8 376.9" fill="none" stroke="#C9A24A" stroke-width="1.1"/><path d="M277.5 364.2 Q295.6 337.3 268.7 319.2 Q250.6 346.1 277.5 364.2" fill="none" stroke="#C9A24A" stroke-width="1.1"/><path d="M314.4 362.9 Q339.9 343 320 317.4 Q294.4 337.4 314.4 362.9" fill="none" stroke="#C9A24A" stroke-width="1.1"/><path d="M349.8 373.1 Q380.3 362 369.2 331.5 Q338.7 342.6 349.8 373.1" fill="none" stroke="#C9A24A" stroke-width="1.1"/><path d="M380.4 393.7 Q412.8 392.6 411.7 360.2 Q379.3 361.3 380.4 393.7" fill="none" stroke="#C9A24A" stroke-width="1.1"/><path d="M403.1 422.8 Q434.3 431.8 443.3 400.6 Q412.1 391.6 403.1 422.8" fill="none" stroke="#C9A24A" stroke-width="1.1"/><path d="M415.8 457.5 Q442.7 475.6 460.8 448.7 Q433.9 430.6 415.8 457.5" fill="none" stroke="#C9A24A" stroke-width="1.1"/><circle cx="300" cy="480" r="163.8" fill="none" stroke="#C9A24A" stroke-width=".8"/><path d="M382.2 500.5 Q394.1 520.4 414.1 508.5 Q402.1 488.5 382.2 500.5" fill="none" stroke="#C9A24A" stroke-width="1.1"/><path d="M374.1 521 Q380.5 543.4 402.9 537 Q396.4 514.6 374.1 521" fill="none" stroke="#C9A24A" stroke-width="1.1"/><path d="M360.9 538.8 Q361.3 562.1 384.6 561.7 Q384.2 538.4 360.9 538.8" fill="none" stroke="#C9A24A" stroke-width="1.1"/><path d="M343.6 552.6 Q338 575.2 360.6 580.8 Q366.2 558.2 343.6 552.6" fill="none" stroke="#C9A24A" stroke-width="1.1"/><path d="M323.3 561.4 Q312.1 581.8 332.4 593 Q343.7 572.7 323.3 561.4" fill="none" stroke="#C9A24A" stroke-width="1.1"/><path d="M301.5 564.7 Q285.3 581.4 302.1 597.6 Q318.2 580.8 301.5 564.7" fill="none" stroke="#C9A24A" stroke-width="1.1"/><path d="M279.5 562.2 Q259.6 574.1 271.5 594.1 Q291.5 582.1 279.5 562.2" fill="none" stroke="#C9A24A" stroke-width="1.1"/><path d="M259 554.1 Q236.6 560.5 243 582.9 Q265.4 576.4 259 554.1" fill="none" stroke="#C9A24A" stroke-width="1.1"/><path d="M241.2 540.9 Q217.9 541.3 218.3 564.6 Q241.6 564.2 241.2 540.9" fill="none" stroke="#C9A24A" stroke-width="1.1"/><path d="M227.4 523.6 Q204.8 518 199.2 540.6 Q221.8 546.2 227.4 523.6" fill="none" stroke="#C9A24A" stroke-width="1.1"/><path d="M218.6 503.3 Q198.2 492.1 187 512.4 Q207.3 523.7 218.6 503.3" fill="none" stroke="#C9A24A" stroke-width="1.1"/><path d="M215.3 481.5 Q198.6 465.3 182.4 482.1 Q199.2 498.2 215.3 481.5" fill="none" stroke="#C9A24A" stroke-width="1.1"/><path d="M217.8 459.5 Q205.9 439.6 185.9 451.5 Q197.9 471.5 217.8 459.5" fill="none" stroke="#C9A24A" stroke-width="1.1"/><path d="M225.9 439 Q219.5 416.6 197.1 423 Q203.6 445.4 225.9 439" fill="none" stroke="#C9A24A" stroke-width="1.1"/><path d="M239.1 421.2 Q238.7 397.9 215.4 398.3 Q215.8 421.6 239.1 421.2" fill="none" stroke="#C9A24A" stroke-width="1.1"/><path d="M256.4 407.4 Q262 384.8 239.4 379.2 Q233.8 401.8 256.4 407.4" fill="none" stroke="#C9A24A" stroke-width="1.1"/><path d="M276.7 398.6 Q287.9 378.2 267.6 367 Q256.3 387.3 276.7 398.6" fill="none" stroke="#C9A24A" stroke-width="1.1"/><path d="M298.5 395.3 Q314.7 378.6 297.9 362.4 Q281.8 379.2 298.5 395.3" fill="none" stroke="#C9A24A" stroke-width="1.1"/><path d="M320.5 397.8 Q340.4 385.9 328.5 365.9 Q308.5 377.9 320.5 397.8" fill="none" stroke="#C9A24A" stroke-width="1.1"/><path d="M341 405.9 Q363.4 399.5 357 377.1 Q334.6 383.6 341 405.9" fill="none" stroke="#C9A24A" stroke-width="1.1"/><path d="M358.8 419.1 Q382.1 418.7 381.7 395.4 Q358.4 395.8 358.8 419.1" fill="none" stroke="#C9A24A" stroke-width="1.1"/><path d="M372.6 436.4 Q395.2 442 400.8 419.4 Q378.2 413.8 372.6 436.4" fill="none" stroke="#C9A24A" stroke-width="1.1"/><path d="M381.4 456.7 Q401.8 467.9 413 447.6 Q392.7 436.3 381.4 456.7" fill="none" stroke="#C9A24A" stroke-width="1.1"/><path d="M384.7 478.5 Q401.4 494.7 417.6 477.9 Q400.8 461.8 384.7 478.5" fill="none" stroke="#C9A24A" stroke-width="1.1"/><circle cx="300" cy="480" r="117.6" fill="none" stroke="#C9A24A" stroke-width=".8"/><path d="M348 498.4 Q353.7 511.3 366.7 505.6 Q360.9 492.7 348 498.4" fill="none" stroke="#C9A24A" stroke-width="1.1"/><path d="M342.7 508.6 Q345.4 522.5 359.3 519.8 Q356.6 505.9 342.7 508.6" fill="none" stroke="#C9A24A" stroke-width="1.1"/><path d="M335.2 517.4 Q334.8 531.6 349 532 Q349.4 517.8 335.2 517.4" fill="none" stroke="#C9A24A" stroke-width="1.1"/><path d="M326 524.3 Q322.5 538 336.2 541.6 Q339.7 527.9 326 524.3" fill="none" stroke="#C9A24A" stroke-width="1.1"/><path d="M315.5 529 Q309 541.6 321.6 548.1 Q328.1 535.5 315.5 529" fill="none" stroke="#C9A24A" stroke-width="1.1"/><path d="M304.2 531.2 Q295.1 542 305.9 551.2 Q315 540.4 304.2 531.2" fill="none" stroke="#C9A24A" stroke-width="1.1"/><path d="M292.7 530.9 Q281.4 539.4 289.9 550.7 Q301.2 542.2 292.7 530.9" fill="none" stroke="#C9A24A" stroke-width="1.1"/><path d="M281.6 528 Q268.7 533.7 274.4 546.7 Q287.3 540.9 281.6 528" fill="none" stroke="#C9A24A" stroke-width="1.1"/><path d="M271.4 522.7 Q257.5 525.4 260.2 539.3 Q274.1 536.6 271.4 522.7" fill="none" stroke="#C9A24A" stroke-width="1.1"/><path d="M262.6 515.2 Q248.4 514.8 248 529 Q262.2 529.4 262.6 515.2" fill="none" stroke="#C9A24A" stroke-width="1.1"/><path d="M255.7 506 Q242 502.5 238.4 516.2 Q252.1 519.7 255.7 506" fill="none" stroke="#C9A24A" stroke-width="1.1"/><path d="M251 495.5 Q238.4 489 231.9 501.6 Q244.5 508.1 251 495.5" fill="none" stroke="#C9A24A" stroke-width="1.1"/><path d="M248.8 484.2 Q238 475.1 228.8 485.9 Q239.6 495 248.8 484.2" fill="none" stroke="#C9A24A" stroke-width="1.1"/><path d="M249.1 472.7 Q240.6 461.4 229.3 469.9 Q237.8 481.2 249.1 472.7" fill="none" stroke="#C9A24A" stroke-width="1.1"/><path d="M252 461.6 Q246.3 448.7 233.3 454.4 Q239.1 467.3 252 461.6" fill="none" stroke="#C9A24A" stroke-width="1.1"/><path d="M257.3 451.4 Q254.6 437.5 240.7 440.2 Q243.4 454.1 257.3 451.4" fill="none" stroke="#C9A24A" stroke-width="1.1"/><path d="M264.8 442.6 Q265.2 428.4 251 428 Q250.6 442.2 264.8 442.6" fill="none" stroke="#C9A24A" stroke-width="1.1"/><path d="M274 435.7 Q277.5 422 263.8 418.4 Q260.3 432.1 274 435.7" fill="none" stroke="#C9A24A" stroke-width="1.1"/><path d="M284.5 431 Q291 418.4 278.4 411.9 Q271.9 424.5 284.5 431" fill="none" stroke="#C9A24A" stroke-width="1.1"/><path d="M295.8 428.8 Q304.9 418 294.1 408.8 Q285 419.6 295.8 428.8" fill="none" stroke="#C9A24A" stroke-width="1.1"/><path d="M307.3 429.1 Q318.6 420.6 310.1 409.3 Q298.8 417.8 307.3 429.1" fill="none" stroke="#C9A24A" stroke-width="1.1"/><path d="M318.4 432 Q331.3 426.3 325.6 413.3 Q312.7 419.1 318.4 432" fill="none" stroke="#C9A24A" stroke-width="1.1"/><path d="M328.6 437.3 Q342.5 434.6 339.8 420.7 Q325.9 423.4 328.6 437.3" fill="none" stroke="#C9A24A" stroke-width="1.1"/><path d="M337.4 444.8 Q351.6 445.2 352 431 Q337.8 430.6 337.4 444.8" fill="none" stroke="#C9A24A" stroke-width="1.1"/><path d="M344.3 454 Q358 457.5 361.6 443.8 Q347.9 440.3 344.3 454" fill="none" stroke="#C9A24A" stroke-width="1.1"/><path d="M349 464.5 Q361.6 471 368.1 458.4 Q355.5 451.9 349 464.5" fill="none" stroke="#C9A24A" stroke-width="1.1"/><path d="M351.2 475.8 Q362 484.9 371.2 474.1 Q360.4 465 351.2 475.8" fill="none" stroke="#C9A24A" stroke-width="1.1"/><path d="M350.9 487.3 Q359.4 498.6 370.7 490.1 Q362.2 478.8 350.9 487.3" fill="none" stroke="#C9A24A" stroke-width="1.1"/><circle cx="300" cy="480" r="71.4" fill="none" stroke="#C9A24A" stroke-width=".8"/></g><g transform="rotate(-30 36 190)"><ellipse cx="36" cy="190" rx="90" ry="36" fill="url(#leafg)"/><path d="M36 190 L126 187 L126 193Z" fill="#FBF4E4"/><line x1="36" y1="190" x2="106.1" y2="206.2" stroke="#A5CF72" stroke-width=".8"/><line x1="36" y1="190" x2="63.7" y2="220.4" stroke="#A5CF72" stroke-width=".8"/><line x1="36" y1="190" x2="8.3" y2="220.4" stroke="#A5CF72" stroke-width=".8"/><line x1="36" y1="190" x2="-34.1" y2="206.2" stroke="#A5CF72" stroke-width=".8"/><line x1="36" y1="190" x2="-43.8" y2="184.4" stroke="#A5CF72" stroke-width=".8"/><line x1="36" y1="190" x2="-16.1" y2="165.2" stroke="#A5CF72" stroke-width=".8"/><line x1="36" y1="190" x2="36" y2="157.6" stroke="#A5CF72" stroke-width=".8"/><line x1="36" y1="190" x2="88.1" y2="165.2" stroke="#A5CF72" stroke-width=".8"/><line x1="36" y1="190" x2="115.8" y2="184.4" stroke="#A5CF72" stroke-width=".8"/></g><g transform="rotate(18 150 70)"><ellipse cx="150" cy="70" rx="80" ry="30" fill="url(#leafg)"/><path d="M150 70 L230 67 L230 73Z" fill="#FBF4E4"/><line x1="150" y1="70" x2="212.4" y2="83.5" stroke="#A5CF72" stroke-width=".8"/><line x1="150" y1="70" x2="174.6" y2="95.4" stroke="#A5CF72" stroke-width=".8"/><line x1="150" y1="70" x2="125.4" y2="95.4" stroke="#A5CF72" stroke-width=".8"/><line x1="150" y1="70" x2="87.6" y2="83.5" stroke="#A5CF72" stroke-width=".8"/><line x1="150" y1="70" x2="79.1" y2="65.3" stroke="#A5CF72" stroke-width=".8"/><line x1="150" y1="70" x2="103.7" y2="49.3" stroke="#A5CF72" stroke-width=".8"/><line x1="150" y1="70" x2="150" y2="43" stroke="#A5CF72" stroke-width=".8"/><line x1="150" y1="70" x2="196.3" y2="49.3" stroke="#A5CF72" stroke-width=".8"/><line x1="150" y1="70" x2="220.9" y2="65.3" stroke="#A5CF72" stroke-width=".8"/></g><g transform="rotate(40 30 40)"><ellipse cx="30" cy="40" rx="70" ry="26" fill="url(#leafg)"/><path d="M30 40 L100 37 L100 43Z" fill="#FBF4E4"/><line x1="30" y1="40" x2="84.6" y2="51.7" stroke="#A5CF72" stroke-width=".8"/><line x1="30" y1="40" x2="51.5" y2="62" stroke="#A5CF72" stroke-width=".8"/><line x1="30" y1="40" x2="8.5" y2="62" stroke="#A5CF72" stroke-width=".8"/><line x1="30" y1="40" x2="-24.6" y2="51.7" stroke="#A5CF72" stroke-width=".8"/><line x1="30" y1="40" x2="-32" y2="35.9" stroke="#A5CF72" stroke-width=".8"/><line x1="30" y1="40" x2="-10.5" y2="22.1" stroke="#A5CF72" stroke-width=".8"/><line x1="30" y1="40" x2="30" y2="16.6" stroke="#A5CF72" stroke-width=".8"/><line x1="30" y1="40" x2="70.5" y2="22.1" stroke="#A5CF72" stroke-width=".8"/><line x1="30" y1="40" x2="92" y2="35.9" stroke="#A5CF72" stroke-width=".8"/></g><path d="M170 40 Q154 100 165.2 160" stroke="#4F8A3A" stroke-width="2.6" fill="none"/><path d="M170 7 Q185.4 29 170 44.4 Q154.6 29 170 7Z" fill="url(#pinkg)" stroke="#C93B6C" stroke-width=".6"/><path d="M170 44.4 Q159 35.6 156.8 20.2 M170 44.4 Q181 35.6 183.2 20.2" stroke="#4F8A3A" stroke-width="2.2" fill="none"/><path d="M20 290 Q30 345 23 400" stroke="#4F8A3A" stroke-width="2.4" fill="none"/><path d="M20 260 Q34 280 20 294 Q6 280 20 260Z" fill="url(#pinkg)" stroke="#C93B6C" stroke-width=".6"/><path d="M20 294 Q10 286 8 272 M20 294 Q30 286 32 272" stroke="#4F8A3A" stroke-width="2" fill="none"/><path d="M82 130 Q49.6 139.1 30.7 111.3 Q63.1 102.2 82 130Z" fill="url(#pinkg)" stroke="#C93B6C" stroke-width=".6"/><path d="M82 130 L66.6 124.4" stroke="#E86A95" stroke-width=".6"/><path d="M82 130 Q100.9 102.2 133.3 111.3 Q114.4 139.1 82 130Z" fill="url(#pinkg)" stroke="#C93B6C" stroke-width=".6"/><path d="M82 130 L97.4 124.4" stroke="#E86A95" stroke-width=".6"/><path d="M82 130 Q40.7 120.8 31.5 79.5 Q72.8 88.7 82 130Z" fill="url(#pinkg)" stroke="#C93B6C" stroke-width=".6"/><path d="M82 130 L66.9 114.9" stroke="#E86A95" stroke-width=".6"/><path d="M82 130 Q91.2 88.7 132.5 79.5 Q123.3 120.8 82 130Z" fill="url(#pinkg)" stroke="#C93B6C" stroke-width=".6"/><path d="M82 130 L97.1 114.9" stroke="#E86A95" stroke-width=".6"/><path d="M82 130 Q44 99.2 53.3 51.1 Q91.3 81.9 82 130Z" fill="url(#pinkg)" stroke="#C93B6C" stroke-width=".6"/><path d="M82 130 L73.4 106.3" stroke="#E86A95" stroke-width=".6"/><path d="M82 130 Q72.7 81.9 110.7 51.1 Q120 99.2 82 130Z" fill="url(#pinkg)" stroke="#C93B6C" stroke-width=".6"/><path d="M82 130 L90.6 106.3" stroke="#E86A95" stroke-width=".6"/><path d="M82 130 Q56.8 83.8 82 37.6 Q107.2 83.8 82 130Z" fill="url(#pinkg)" stroke="#C93B6C" stroke-width=".6"/><path d="M82 130 L82 102.3" stroke="#E86A95" stroke-width=".6"/><line x1="470" y1="0" x2="470" y2="150" stroke="#9C8A6A" stroke-width=".8"/><ellipse cx="466.8" cy="4" rx="3.4" ry="4.6" fill="#FFFDF6" stroke="#D9D0BC" stroke-width=".6" transform="rotate(-20 466.8 4)"/><ellipse cx="473.2" cy="9.2" rx="3.4" ry="4.6" fill="#FFFDF6" stroke="#D9D0BC" stroke-width=".6" transform="rotate(20 473.2 9.2)"/><ellipse cx="466.8" cy="14.4" rx="3.4" ry="4.6" fill="#FFFDF6" stroke="#D9D0BC" stroke-width=".6" transform="rotate(-20 466.8 14.4)"/><ellipse cx="473.2" cy="19.6" rx="3.4" ry="4.6" fill="#FFFDF6" stroke="#D9D0BC" stroke-width=".6" transform="rotate(20 473.2 19.6)"/><ellipse cx="466.8" cy="24.8" rx="3.4" ry="4.6" fill="#FFFDF6" stroke="#D9D0BC" stroke-width=".6" transform="rotate(-20 466.8 24.8)"/><ellipse cx="473.2" cy="30" rx="3.4" ry="4.6" fill="#FFFDF6" stroke="#D9D0BC" stroke-width=".6" transform="rotate(20 473.2 30)"/><ellipse cx="466.8" cy="35.2" rx="3.4" ry="4.6" fill="#FFFDF6" stroke="#D9D0BC" stroke-width=".6" transform="rotate(-20 466.8 35.2)"/><ellipse cx="473.2" cy="40.4" rx="3.4" ry="4.6" fill="#FFFDF6" stroke="#D9D0BC" stroke-width=".6" transform="rotate(20 473.2 40.4)"/><ellipse cx="466.8" cy="45.6" rx="3.4" ry="4.6" fill="#FFFDF6" stroke="#D9D0BC" stroke-width=".6" transform="rotate(-20 466.8 45.6)"/><ellipse cx="473.2" cy="50.8" rx="3.4" ry="4.6" fill="#FFFDF6" stroke="#D9D0BC" stroke-width=".6" transform="rotate(20 473.2 50.8)"/><ellipse cx="466.8" cy="56" rx="3.4" ry="4.6" fill="#FFFDF6" stroke="#D9D0BC" stroke-width=".6" transform="rotate(-20 466.8 56)"/><ellipse cx="473.2" cy="61.2" rx="3.4" ry="4.6" fill="#FFFDF6" stroke="#D9D0BC" stroke-width=".6" transform="rotate(20 473.2 61.2)"/><ellipse cx="466.8" cy="66.4" rx="3.4" ry="4.6" fill="#FFFDF6" stroke="#D9D0BC" stroke-width=".6" transform="rotate(-20 466.8 66.4)"/><ellipse cx="473.2" cy="71.6" rx="3.4" ry="4.6" fill="#FFFDF6" stroke="#D9D0BC" stroke-width=".6" transform="rotate(20 473.2 71.6)"/><ellipse cx="466.8" cy="76.8" rx="3.4" ry="4.6" fill="#FFFDF6" stroke="#D9D0BC" stroke-width=".6" transform="rotate(-20 466.8 76.8)"/><ellipse cx="473.2" cy="82" rx="3.4" ry="4.6" fill="#FFFDF6" stroke="#D9D0BC" stroke-width=".6" transform="rotate(20 473.2 82)"/><ellipse cx="466.8" cy="87.2" rx="3.4" ry="4.6" fill="#FFFDF6" stroke="#D9D0BC" stroke-width=".6" transform="rotate(-20 466.8 87.2)"/><ellipse cx="473.2" cy="92.4" rx="3.4" ry="4.6" fill="#FFFDF6" stroke="#D9D0BC" stroke-width=".6" transform="rotate(20 473.2 92.4)"/><ellipse cx="466.8" cy="97.6" rx="3.4" ry="4.6" fill="#FFFDF6" stroke="#D9D0BC" stroke-width=".6" transform="rotate(-20 466.8 97.6)"/><ellipse cx="473.2" cy="102.8" rx="3.4" ry="4.6" fill="#FFFDF6" stroke="#D9D0BC" stroke-width=".6" transform="rotate(20 473.2 102.8)"/><ellipse cx="466.8" cy="108" rx="3.4" ry="4.6" fill="#FFFDF6" stroke="#D9D0BC" stroke-width=".6" transform="rotate(-20 466.8 108)"/><ellipse cx="473.2" cy="113.2" rx="3.4" ry="4.6" fill="#FFFDF6" stroke="#D9D0BC" stroke-width=".6" transform="rotate(20 473.2 113.2)"/><ellipse cx="466.8" cy="118.4" rx="3.4" ry="4.6" fill="#FFFDF6" stroke="#D9D0BC" stroke-width=".6" transform="rotate(-20 466.8 118.4)"/><ellipse cx="473.2" cy="123.6" rx="3.4" ry="4.6" fill="#FFFDF6" stroke="#D9D0BC" stroke-width=".6" transform="rotate(20 473.2 123.6)"/><ellipse cx="466.8" cy="128.8" rx="3.4" ry="4.6" fill="#FFFDF6" stroke="#D9D0BC" stroke-width=".6" transform="rotate(-20 466.8 128.8)"/><ellipse cx="473.2" cy="134" rx="3.4" ry="4.6" fill="#FFFDF6" stroke="#D9D0BC" stroke-width=".6" transform="rotate(20 473.2 134)"/><ellipse cx="466.8" cy="139.2" rx="3.4" ry="4.6" fill="#FFFDF6" stroke="#D9D0BC" stroke-width=".6" transform="rotate(-20 466.8 139.2)"/><ellipse cx="473.2" cy="144.4" rx="3.4" ry="4.6" fill="#FFFDF6" stroke="#D9D0BC" stroke-width=".6" transform="rotate(20 473.2 144.4)"/><ellipse cx="466.8" cy="149.6" rx="3.4" ry="4.6" fill="#FFFDF6" stroke="#D9D0BC" stroke-width=".6" transform="rotate(-20 466.8 149.6)"/><path d="M466 166 L470 184 L474 166Z" fill="#E0B347"/><path d="M470 186 Q470 186 470 186" stroke="#4F8A3A" stroke-width="2" fill="none"/><path d="M470 160.5 Q481.9 177.5 470 189.4 Q458.1 177.5 470 160.5Z" fill="url(#pinkg)" stroke="#C93B6C" stroke-width=".6"/><path d="M470 189.4 Q461.5 182.6 459.8 170.7 M470 189.4 Q478.5 182.6 480.2 170.7" stroke="#4F8A3A" stroke-width="1.7" fill="none"/><line x1="505" y1="0" x2="505" y2="230" stroke="#9C8A6A" stroke-width=".8"/><ellipse cx="501.8" cy="4" rx="3.4" ry="4.6" fill="#FFFDF6" stroke="#D9D0BC" stroke-width=".6" transform="rotate(-20 501.8 4)"/><ellipse cx="508.2" cy="9.2" rx="3.4" ry="4.6" fill="#FFFDF6" stroke="#D9D0BC" stroke-width=".6" transform="rotate(20 508.2 9.2)"/><ellipse cx="501.8" cy="14.4" rx="3.4" ry="4.6" fill="#FFFDF6" stroke="#D9D0BC" stroke-width=".6" transform="rotate(-20 501.8 14.4)"/><ellipse cx="508.2" cy="19.6" rx="3.4" ry="4.6" fill="#FFFDF6" stroke="#D9D0BC" stroke-width=".6" transform="rotate(20 508.2 19.6)"/><ellipse cx="501.8" cy="24.8" rx="3.4" ry="4.6" fill="#FFFDF6" stroke="#D9D0BC" stroke-width=".6" transform="rotate(-20 501.8 24.8)"/><ellipse cx="508.2" cy="30" rx="3.4" ry="4.6" fill="#FFFDF6" stroke="#D9D0BC" stroke-width=".6" transform="rotate(20 508.2 30)"/><ellipse cx="501.8" cy="35.2" rx="3.4" ry="4.6" fill="#FFFDF6" stroke="#D9D0BC" stroke-width=".6" transform="rotate(-20 501.8 35.2)"/><ellipse cx="508.2" cy="40.4" rx="3.4" ry="4.6" fill="#FFFDF6" stroke="#D9D0BC" stroke-width=".6" transform="rotate(20 508.2 40.4)"/><ellipse cx="501.8" cy="45.6" rx="3.4" ry="4.6" fill="#FFFDF6" stroke="#D9D0BC" stroke-width=".6" transform="rotate(-20 501.8 45.6)"/><ellipse cx="508.2" cy="50.8" rx="3.4" ry="4.6" fill="#FFFDF6" stroke="#D9D0BC" stroke-width=".6" transform="rotate(20 508.2 50.8)"/><ellipse cx="501.8" cy="56" rx="3.4" ry="4.6" fill="#FFFDF6" stroke="#D9D0BC" stroke-width=".6" transform="rotate(-20 501.8 56)"/><ellipse cx="508.2" cy="61.2" rx="3.4" ry="4.6" fill="#FFFDF6" stroke="#D9D0BC" stroke-width=".6" transform="rotate(20 508.2 61.2)"/><ellipse cx="501.8" cy="66.4" rx="3.4" ry="4.6" fill="#FFFDF6" stroke="#D9D0BC" stroke-width=".6" transform="rotate(-20 501.8 66.4)"/><ellipse cx="508.2" cy="71.6" rx="3.4" ry="4.6" fill="#FFFDF6" stroke="#D9D0BC" stroke-width=".6" transform="rotate(20 508.2 71.6)"/><ellipse cx="501.8" cy="76.8" rx="3.4" ry="4.6" fill="#FFFDF6" stroke="#D9D0BC" stroke-width=".6" transform="rotate(-20 501.8 76.8)"/><ellipse cx="508.2" cy="82" rx="3.4" ry="4.6" fill="#FFFDF6" stroke="#D9D0BC" stroke-width=".6" transform="rotate(20 508.2 82)"/><ellipse cx="501.8" cy="87.2" rx="3.4" ry="4.6" fill="#FFFDF6" stroke="#D9D0BC" stroke-width=".6" transform="rotate(-20 501.8 87.2)"/><ellipse cx="508.2" cy="92.4" rx="3.4" ry="4.6" fill="#FFFDF6" stroke="#D9D0BC" stroke-width=".6" transform="rotate(20 508.2 92.4)"/><ellipse cx="501.8" cy="97.6" rx="3.4" ry="4.6" fill="#FFFDF6" stroke="#D9D0BC" stroke-width=".6" transform="rotate(-20 501.8 97.6)"/><ellipse cx="508.2" cy="102.8" rx="3.4" ry="4.6" fill="#FFFDF6" stroke="#D9D0BC" stroke-width=".6" transform="rotate(20 508.2 102.8)"/><ellipse cx="501.8" cy="108" rx="3.4" ry="4.6" fill="#FFFDF6" stroke="#D9D0BC" stroke-width=".6" transform="rotate(-20 501.8 108)"/><ellipse cx="508.2" cy="113.2" rx="3.4" ry="4.6" fill="#FFFDF6" stroke="#D9D0BC" stroke-width=".6" transform="rotate(20 508.2 113.2)"/><ellipse cx="501.8" cy="118.4" rx="3.4" ry="4.6" fill="#FFFDF6" stroke="#D9D0BC" stroke-width=".6" transform="rotate(-20 501.8 118.4)"/><ellipse cx="508.2" cy="123.6" rx="3.4" ry="4.6" fill="#FFFDF6" stroke="#D9D0BC" stroke-width=".6" transform="rotate(20 508.2 123.6)"/><ellipse cx="501.8" cy="128.8" rx="3.4" ry="4.6" fill="#FFFDF6" stroke="#D9D0BC" stroke-width=".6" transform="rotate(-20 501.8 128.8)"/><ellipse cx="508.2" cy="134" rx="3.4" ry="4.6" fill="#FFFDF6" stroke="#D9D0BC" stroke-width=".6" transform="rotate(20 508.2 134)"/><ellipse cx="501.8" cy="139.2" rx="3.4" ry="4.6" fill="#FFFDF6" stroke="#D9D0BC" stroke-width=".6" transform="rotate(-20 501.8 139.2)"/><ellipse cx="508.2" cy="144.4" rx="3.4" ry="4.6" fill="#FFFDF6" stroke="#D9D0BC" stroke-width=".6" transform="rotate(20 508.2 144.4)"/><ellipse cx="501.8" cy="149.6" rx="3.4" ry="4.6" fill="#FFFDF6" stroke="#D9D0BC" stroke-width=".6" transform="rotate(-20 501.8 149.6)"/><ellipse cx="508.2" cy="154.8" rx="3.4" ry="4.6" fill="#FFFDF6" stroke="#D9D0BC" stroke-width=".6" transform="rotate(20 508.2 154.8)"/><ellipse cx="501.8" cy="160" rx="3.4" ry="4.6" fill="#FFFDF6" stroke="#D9D0BC" stroke-width=".6" transform="rotate(-20 501.8 160)"/><ellipse cx="508.2" cy="165.2" rx="3.4" ry="4.6" fill="#FFFDF6" stroke="#D9D0BC" stroke-width=".6" transform="rotate(20 508.2 165.2)"/><ellipse cx="501.8" cy="170.4" rx="3.4" ry="4.6" fill="#FFFDF6" stroke="#D9D0BC" stroke-width=".6" transform="rotate(-20 501.8 170.4)"/><ellipse cx="508.2" cy="175.6" rx="3.4" ry="4.6" fill="#FFFDF6" stroke="#D9D0BC" stroke-width=".6" transform="rotate(20 508.2 175.6)"/><ellipse cx="501.8" cy="180.8" rx="3.4" ry="4.6" fill="#FFFDF6" stroke="#D9D0BC" stroke-width=".6" transform="rotate(-20 501.8 180.8)"/><ellipse cx="508.2" cy="186" rx="3.4" ry="4.6" fill="#FFFDF6" stroke="#D9D0BC" stroke-width=".6" transform="rotate(20 508.2 186)"/><ellipse cx="501.8" cy="191.2" rx="3.4" ry="4.6" fill="#FFFDF6" stroke="#D9D0BC" stroke-width=".6" transform="rotate(-20 501.8 191.2)"/><ellipse cx="508.2" cy="196.4" rx="3.4" ry="4.6" fill="#FFFDF6" stroke="#D9D0BC" stroke-width=".6" transform="rotate(20 508.2 196.4)"/><ellipse cx="501.8" cy="201.6" rx="3.4" ry="4.6" fill="#FFFDF6" stroke="#D9D0BC" stroke-width=".6" transform="rotate(-20 501.8 201.6)"/><ellipse cx="508.2" cy="206.8" rx="3.4" ry="4.6" fill="#FFFDF6" stroke="#D9D0BC" stroke-width=".6" transform="rotate(20 508.2 206.8)"/><ellipse cx="501.8" cy="212" rx="3.4" ry="4.6" fill="#FFFDF6" stroke="#D9D0BC" stroke-width=".6" transform="rotate(-20 501.8 212)"/><ellipse cx="508.2" cy="217.2" rx="3.4" ry="4.6" fill="#FFFDF6" stroke="#D9D0BC" stroke-width=".6" transform="rotate(20 508.2 217.2)"/><ellipse cx="501.8" cy="222.4" rx="3.4" ry="4.6" fill="#FFFDF6" stroke="#D9D0BC" stroke-width=".6" transform="rotate(-20 501.8 222.4)"/><ellipse cx="508.2" cy="227.6" rx="3.4" ry="4.6" fill="#FFFDF6" stroke="#D9D0BC" stroke-width=".6" transform="rotate(20 508.2 227.6)"/><path d="M501 246 L505 264 L509 246Z" fill="#E0B347"/><path d="M505 266 Q505 266 505 266" stroke="#4F8A3A" stroke-width="2" fill="none"/><path d="M505 240.5 Q516.9 257.5 505 269.4 Q493.1 257.5 505 240.5Z" fill="url(#pinkg)" stroke="#C93B6C" stroke-width=".6"/><path d="M505 269.4 Q496.5 262.6 494.8 250.7 M505 269.4 Q513.5 262.6 515.2 250.7" stroke="#4F8A3A" stroke-width="1.7" fill="none"/><line x1="540" y1="0" x2="540" y2="120" stroke="#9C8A6A" stroke-width=".8"/><ellipse cx="536.8" cy="4" rx="3.4" ry="4.6" fill="#FFFDF6" stroke="#D9D0BC" stroke-width=".6" transform="rotate(-20 536.8 4)"/><ellipse cx="543.2" cy="9.2" rx="3.4" ry="4.6" fill="#FFFDF6" stroke="#D9D0BC" stroke-width=".6" transform="rotate(20 543.2 9.2)"/><ellipse cx="536.8" cy="14.4" rx="3.4" ry="4.6" fill="#FFFDF6" stroke="#D9D0BC" stroke-width=".6" transform="rotate(-20 536.8 14.4)"/><ellipse cx="543.2" cy="19.6" rx="3.4" ry="4.6" fill="#FFFDF6" stroke="#D9D0BC" stroke-width=".6" transform="rotate(20 543.2 19.6)"/><ellipse cx="536.8" cy="24.8" rx="3.4" ry="4.6" fill="#FFFDF6" stroke="#D9D0BC" stroke-width=".6" transform="rotate(-20 536.8 24.8)"/><ellipse cx="543.2" cy="30" rx="3.4" ry="4.6" fill="#FFFDF6" stroke="#D9D0BC" stroke-width=".6" transform="rotate(20 543.2 30)"/><ellipse cx="536.8" cy="35.2" rx="3.4" ry="4.6" fill="#FFFDF6" stroke="#D9D0BC" stroke-width=".6" transform="rotate(-20 536.8 35.2)"/><ellipse cx="543.2" cy="40.4" rx="3.4" ry="4.6" fill="#FFFDF6" stroke="#D9D0BC" stroke-width=".6" transform="rotate(20 543.2 40.4)"/><ellipse cx="536.8" cy="45.6" rx="3.4" ry="4.6" fill="#FFFDF6" stroke="#D9D0BC" stroke-width=".6" transform="rotate(-20 536.8 45.6)"/><ellipse cx="543.2" cy="50.8" rx="3.4" ry="4.6" fill="#FFFDF6" stroke="#D9D0BC" stroke-width=".6" transform="rotate(20 543.2 50.8)"/><ellipse cx="536.8" cy="56" rx="3.4" ry="4.6" fill="#FFFDF6" stroke="#D9D0BC" stroke-width=".6" transform="rotate(-20 536.8 56)"/><ellipse cx="543.2" cy="61.2" rx="3.4" ry="4.6" fill="#FFFDF6" stroke="#D9D0BC" stroke-width=".6" transform="rotate(20 543.2 61.2)"/><ellipse cx="536.8" cy="66.4" rx="3.4" ry="4.6" fill="#FFFDF6" stroke="#D9D0BC" stroke-width=".6" transform="rotate(-20 536.8 66.4)"/><ellipse cx="543.2" cy="71.6" rx="3.4" ry="4.6" fill="#FFFDF6" stroke="#D9D0BC" stroke-width=".6" transform="rotate(20 543.2 71.6)"/><ellipse cx="536.8" cy="76.8" rx="3.4" ry="4.6" fill="#FFFDF6" stroke="#D9D0BC" stroke-width=".6" transform="rotate(-20 536.8 76.8)"/><ellipse cx="543.2" cy="82" rx="3.4" ry="4.6" fill="#FFFDF6" stroke="#D9D0BC" stroke-width=".6" transform="rotate(20 543.2 82)"/><ellipse cx="536.8" cy="87.2" rx="3.4" ry="4.6" fill="#FFFDF6" stroke="#D9D0BC" stroke-width=".6" transform="rotate(-20 536.8 87.2)"/><ellipse cx="543.2" cy="92.4" rx="3.4" ry="4.6" fill="#FFFDF6" stroke="#D9D0BC" stroke-width=".6" transform="rotate(20 543.2 92.4)"/><ellipse cx="536.8" cy="97.6" rx="3.4" ry="4.6" fill="#FFFDF6" stroke="#D9D0BC" stroke-width=".6" transform="rotate(-20 536.8 97.6)"/><ellipse cx="543.2" cy="102.8" rx="3.4" ry="4.6" fill="#FFFDF6" stroke="#D9D0BC" stroke-width=".6" transform="rotate(20 543.2 102.8)"/><ellipse cx="536.8" cy="108" rx="3.4" ry="4.6" fill="#FFFDF6" stroke="#D9D0BC" stroke-width=".6" transform="rotate(-20 536.8 108)"/><ellipse cx="543.2" cy="113.2" rx="3.4" ry="4.6" fill="#FFFDF6" stroke="#D9D0BC" stroke-width=".6" transform="rotate(20 543.2 113.2)"/><ellipse cx="536.8" cy="118.4" rx="3.4" ry="4.6" fill="#FFFDF6" stroke="#D9D0BC" stroke-width=".6" transform="rotate(-20 536.8 118.4)"/><path d="M536 136 L540 154 L544 136Z" fill="#E0B347"/><path d="M540 156 Q540 156 540 156" stroke="#4F8A3A" stroke-width="2" fill="none"/><path d="M540 130.5 Q551.9 147.5 540 159.4 Q528.1 147.5 540 130.5Z" fill="url(#pinkg)" stroke="#C93B6C" stroke-width=".6"/><path d="M540 159.4 Q531.5 152.6 529.8 140.7 M540 159.4 Q548.5 152.6 550.2 140.7" stroke="#4F8A3A" stroke-width="1.7" fill="none"/><line x1="575" y1="0" x2="575" y2="190" stroke="#9C8A6A" stroke-width=".8"/><ellipse cx="571.8" cy="4" rx="3.4" ry="4.6" fill="#FFFDF6" stroke="#D9D0BC" stroke-width=".6" transform="rotate(-20 571.8 4)"/><ellipse cx="578.2" cy="9.2" rx="3.4" ry="4.6" fill="#FFFDF6" stroke="#D9D0BC" stroke-width=".6" transform="rotate(20 578.2 9.2)"/><ellipse cx="571.8" cy="14.4" rx="3.4" ry="4.6" fill="#FFFDF6" stroke="#D9D0BC" stroke-width=".6" transform="rotate(-20 571.8 14.4)"/><ellipse cx="578.2" cy="19.6" rx="3.4" ry="4.6" fill="#FFFDF6" stroke="#D9D0BC" stroke-width=".6" transform="rotate(20 578.2 19.6)"/><ellipse cx="571.8" cy="24.8" rx="3.4" ry="4.6" fill="#FFFDF6" stroke="#D9D0BC" stroke-width=".6" transform="rotate(-20 571.8 24.8)"/><ellipse cx="578.2" cy="30" rx="3.4" ry="4.6" fill="#FFFDF6" stroke="#D9D0BC" stroke-width=".6" transform="rotate(20 578.2 30)"/><ellipse cx="571.8" cy="35.2" rx="3.4" ry="4.6" fill="#FFFDF6" stroke="#D9D0BC" stroke-width=".6" transform="rotate(-20 571.8 35.2)"/><ellipse cx="578.2" cy="40.4" rx="3.4" ry="4.6" fill="#FFFDF6" stroke="#D9D0BC" stroke-width=".6" transform="rotate(20 578.2 40.4)"/><ellipse cx="571.8" cy="45.6" rx="3.4" ry="4.6" fill="#FFFDF6" stroke="#D9D0BC" stroke-width=".6" transform="rotate(-20 571.8 45.6)"/><ellipse cx="578.2" cy="50.8" rx="3.4" ry="4.6" fill="#FFFDF6" stroke="#D9D0BC" stroke-width=".6" transform="rotate(20 578.2 50.8)"/><ellipse cx="571.8" cy="56" rx="3.4" ry="4.6" fill="#FFFDF6" stroke="#D9D0BC" stroke-width=".6" transform="rotate(-20 571.8 56)"/><ellipse cx="578.2" cy="61.2" rx="3.4" ry="4.6" fill="#FFFDF6" stroke="#D9D0BC" stroke-width=".6" transform="rotate(20 578.2 61.2)"/><ellipse cx="571.8" cy="66.4" rx="3.4" ry="4.6" fill="#FFFDF6" stroke="#D9D0BC" stroke-width=".6" transform="rotate(-20 571.8 66.4)"/><ellipse cx="578.2" cy="71.6" rx="3.4" ry="4.6" fill="#FFFDF6" stroke="#D9D0BC" stroke-width=".6" transform="rotate(20 578.2 71.6)"/><ellipse cx="571.8" cy="76.8" rx="3.4" ry="4.6" fill="#FFFDF6" stroke="#D9D0BC" stroke-width=".6" transform="rotate(-20 571.8 76.8)"/><ellipse cx="578.2" cy="82" rx="3.4" ry="4.6" fill="#FFFDF6" stroke="#D9D0BC" stroke-width=".6" transform="rotate(20 578.2 82)"/><ellipse cx="571.8" cy="87.2" rx="3.4" ry="4.6" fill="#FFFDF6" stroke="#D9D0BC" stroke-width=".6" transform="rotate(-20 571.8 87.2)"/><ellipse cx="578.2" cy="92.4" rx="3.4" ry="4.6" fill="#FFFDF6" stroke="#D9D0BC" stroke-width=".6" transform="rotate(20 578.2 92.4)"/><ellipse cx="571.8" cy="97.6" rx="3.4" ry="4.6" fill="#FFFDF6" stroke="#D9D0BC" stroke-width=".6" transform="rotate(-20 571.8 97.6)"/><ellipse cx="578.2" cy="102.8" rx="3.4" ry="4.6" fill="#FFFDF6" stroke="#D9D0BC" stroke-width=".6" transform="rotate(20 578.2 102.8)"/><ellipse cx="571.8" cy="108" rx="3.4" ry="4.6" fill="#FFFDF6" stroke="#D9D0BC" stroke-width=".6" transform="rotate(-20 571.8 108)"/><ellipse cx="578.2" cy="113.2" rx="3.4" ry="4.6" fill="#FFFDF6" stroke="#D9D0BC" stroke-width=".6" transform="rotate(20 578.2 113.2)"/><ellipse cx="571.8" cy="118.4" rx="3.4" ry="4.6" fill="#FFFDF6" stroke="#D9D0BC" stroke-width=".6" transform="rotate(-20 571.8 118.4)"/><ellipse cx="578.2" cy="123.6" rx="3.4" ry="4.6" fill="#FFFDF6" stroke="#D9D0BC" stroke-width=".6" transform="rotate(20 578.2 123.6)"/><ellipse cx="571.8" cy="128.8" rx="3.4" ry="4.6" fill="#FFFDF6" stroke="#D9D0BC" stroke-width=".6" transform="rotate(-20 571.8 128.8)"/><ellipse cx="578.2" cy="134" rx="3.4" ry="4.6" fill="#FFFDF6" stroke="#D9D0BC" stroke-width=".6" transform="rotate(20 578.2 134)"/><ellipse cx="571.8" cy="139.2" rx="3.4" ry="4.6" fill="#FFFDF6" stroke="#D9D0BC" stroke-width=".6" transform="rotate(-20 571.8 139.2)"/><ellipse cx="578.2" cy="144.4" rx="3.4" ry="4.6" fill="#FFFDF6" stroke="#D9D0BC" stroke-width=".6" transform="rotate(20 578.2 144.4)"/><ellipse cx="571.8" cy="149.6" rx="3.4" ry="4.6" fill="#FFFDF6" stroke="#D9D0BC" stroke-width=".6" transform="rotate(-20 571.8 149.6)"/><ellipse cx="578.2" cy="154.8" rx="3.4" ry="4.6" fill="#FFFDF6" stroke="#D9D0BC" stroke-width=".6" transform="rotate(20 578.2 154.8)"/><ellipse cx="571.8" cy="160" rx="3.4" ry="4.6" fill="#FFFDF6" stroke="#D9D0BC" stroke-width=".6" transform="rotate(-20 571.8 160)"/><ellipse cx="578.2" cy="165.2" rx="3.4" ry="4.6" fill="#FFFDF6" stroke="#D9D0BC" stroke-width=".6" transform="rotate(20 578.2 165.2)"/><ellipse cx="571.8" cy="170.4" rx="3.4" ry="4.6" fill="#FFFDF6" stroke="#D9D0BC" stroke-width=".6" transform="rotate(-20 571.8 170.4)"/><ellipse cx="578.2" cy="175.6" rx="3.4" ry="4.6" fill="#FFFDF6" stroke="#D9D0BC" stroke-width=".6" transform="rotate(20 578.2 175.6)"/><ellipse cx="571.8" cy="180.8" rx="3.4" ry="4.6" fill="#FFFDF6" stroke="#D9D0BC" stroke-width=".6" transform="rotate(-20 571.8 180.8)"/><ellipse cx="578.2" cy="186" rx="3.4" ry="4.6" fill="#FFFDF6" stroke="#D9D0BC" stroke-width=".6" transform="rotate(20 578.2 186)"/><path d="M571 206 L575 224 L579 206Z" fill="#E0B347"/><path d="M575 226 Q575 226 575 226" stroke="#4F8A3A" stroke-width="2" fill="none"/><path d="M575 200.5 Q586.9 217.5 575 229.4 Q563.1 217.5 575 200.5Z" fill="url(#pinkg)" stroke="#C93B6C" stroke-width=".6"/><path d="M575 229.4 Q566.5 222.6 564.8 210.7 M575 229.4 Q583.5 222.6 585.2 210.7" stroke="#4F8A3A" stroke-width="1.7" fill="none"/><path d="M276.9 50 L276.9 98.3 Q300 123.5 323.1 98.3 L323.1 50" stroke="#FFFDF6" stroke-width="9.5" fill="none" stroke-linecap="round" filter="url(#shadow)"/><path d="M300.0 50 L294.8 96.2 Q300.0 104.6 305.2 96.2Z" fill="#D7262E"/><path d="M0 748 Q75 734 150 748 T300 748 T450 748 T600 748 L600 800 L0 800Z" fill="#9FD2DA" opacity=".6"/><path d="M0 772 Q75 760 150 772 T300 772 T450 772 T600 772 L600 800 L0 800Z" fill="#7FC1CB" opacity=".6"/><g transform="rotate(0 70 776)"><ellipse cx="70" cy="776" rx="46" ry="11" fill="url(#leafg)"/><path d="M70 776 L116 773 L116 779Z" fill="#FBF4E4"/><line x1="70" y1="776" x2="105.9" y2="781" stroke="#A5CF72" stroke-width=".8"/><line x1="70" y1="776" x2="84.2" y2="785.3" stroke="#A5CF72" stroke-width=".8"/><line x1="70" y1="776" x2="55.8" y2="785.3" stroke="#A5CF72" stroke-width=".8"/><line x1="70" y1="776" x2="34.1" y2="781" stroke="#A5CF72" stroke-width=".8"/><line x1="70" y1="776" x2="29.2" y2="774.3" stroke="#A5CF72" stroke-width=".8"/><line x1="70" y1="776" x2="43.4" y2="768.4" stroke="#A5CF72" stroke-width=".8"/><line x1="70" y1="776" x2="70" y2="766.1" stroke="#A5CF72" stroke-width=".8"/><line x1="70" y1="776" x2="96.6" y2="768.4" stroke="#A5CF72" stroke-width=".8"/><line x1="70" y1="776" x2="110.8" y2="774.3" stroke="#A5CF72" stroke-width=".8"/></g><g transform="rotate(10 170 776)"><ellipse cx="170" cy="776" rx="46" ry="11" fill="url(#leafg)"/><path d="M170 776 L216 773 L216 779Z" fill="#FBF4E4"/><line x1="170" y1="776" x2="205.9" y2="781" stroke="#A5CF72" stroke-width=".8"/><line x1="170" y1="776" x2="184.2" y2="785.3" stroke="#A5CF72" stroke-width=".8"/><line x1="170" y1="776" x2="155.8" y2="785.3" stroke="#A5CF72" stroke-width=".8"/><line x1="170" y1="776" x2="134.1" y2="781" stroke="#A5CF72" stroke-width=".8"/><line x1="170" y1="776" x2="129.2" y2="774.3" stroke="#A5CF72" stroke-width=".8"/><line x1="170" y1="776" x2="143.4" y2="768.4" stroke="#A5CF72" stroke-width=".8"/><line x1="170" y1="776" x2="170" y2="766.1" stroke="#A5CF72" stroke-width=".8"/><line x1="170" y1="776" x2="196.6" y2="768.4" stroke="#A5CF72" stroke-width=".8"/><line x1="170" y1="776" x2="210.8" y2="774.3" stroke="#A5CF72" stroke-width=".8"/></g><g transform="rotate(170 430 776)"><ellipse cx="430" cy="776" rx="46" ry="11" fill="url(#leafg)"/><path d="M430 776 L476 773 L476 779Z" fill="#FBF4E4"/><line x1="430" y1="776" x2="465.9" y2="781" stroke="#A5CF72" stroke-width=".8"/><line x1="430" y1="776" x2="444.2" y2="785.3" stroke="#A5CF72" stroke-width=".8"/><line x1="430" y1="776" x2="415.8" y2="785.3" stroke="#A5CF72" stroke-width=".8"/><line x1="430" y1="776" x2="394.1" y2="781" stroke="#A5CF72" stroke-width=".8"/><line x1="430" y1="776" x2="389.2" y2="774.3" stroke="#A5CF72" stroke-width=".8"/><line x1="430" y1="776" x2="403.4" y2="768.4" stroke="#A5CF72" stroke-width=".8"/><line x1="430" y1="776" x2="430" y2="766.1" stroke="#A5CF72" stroke-width=".8"/><line x1="430" y1="776" x2="456.6" y2="768.4" stroke="#A5CF72" stroke-width=".8"/><line x1="430" y1="776" x2="470.8" y2="774.3" stroke="#A5CF72" stroke-width=".8"/></g><g transform="rotate(180 530 776)"><ellipse cx="530" cy="776" rx="46" ry="11" fill="url(#leafg)"/><path d="M530 776 L576 773 L576 779Z" fill="#FBF4E4"/><line x1="530" y1="776" x2="565.9" y2="781" stroke="#A5CF72" stroke-width=".8"/><line x1="530" y1="776" x2="544.2" y2="785.3" stroke="#A5CF72" stroke-width=".8"/><line x1="530" y1="776" x2="515.8" y2="785.3" stroke="#A5CF72" stroke-width=".8"/><line x1="530" y1="776" x2="494.1" y2="781" stroke="#A5CF72" stroke-width=".8"/><line x1="530" y1="776" x2="489.2" y2="774.3" stroke="#A5CF72" stroke-width=".8"/><line x1="530" y1="776" x2="503.4" y2="768.4" stroke="#A5CF72" stroke-width=".8"/><line x1="530" y1="776" x2="530" y2="766.1" stroke="#A5CF72" stroke-width=".8"/><line x1="530" y1="776" x2="556.6" y2="768.4" stroke="#A5CF72" stroke-width=".8"/><line x1="530" y1="776" x2="570.8" y2="774.3" stroke="#A5CF72" stroke-width=".8"/></g><path d="M50 768 Q30.7 773.4 19.5 756.9 Q38.7 751.4 50 768Z" fill="url(#pinkg)" stroke="#C93B6C" stroke-width=".6"/><path d="M50 768 L40.8 764.7" stroke="#E86A95" stroke-width=".6"/><path d="M50 768 Q61.3 751.4 80.5 756.9 Q69.3 773.4 50 768Z" fill="url(#pinkg)" stroke="#C93B6C" stroke-width=".6"/><path d="M50 768 L59.2 764.7" stroke="#E86A95" stroke-width=".6"/><path d="M50 768 Q25.4 762.5 19.9 737.9 Q44.5 743.4 50 768Z" fill="url(#pinkg)" stroke="#C93B6C" stroke-width=".6"/><path d="M50 768 L41 759" stroke="#E86A95" stroke-width=".6"/><path d="M50 768 Q55.5 743.4 80.1 737.9 Q74.6 762.5 50 768Z" fill="url(#pinkg)" stroke="#C93B6C" stroke-width=".6"/><path d="M50 768 L59 759" stroke="#E86A95" stroke-width=".6"/><path d="M50 768 Q27.4 749.6 32.9 721 Q55.5 739.4 50 768Z" fill="url(#pinkg)" stroke="#C93B6C" stroke-width=".6"/><path d="M50 768 L44.9 753.9" stroke="#E86A95" stroke-width=".6"/><path d="M50 768 Q44.5 739.4 67.1 721 Q72.6 749.6 50 768Z" fill="url(#pinkg)" stroke="#C93B6C" stroke-width=".6"/><path d="M50 768 L55.1 753.9" stroke="#E86A95" stroke-width=".6"/><path d="M50 768 Q35 740.5 50 713 Q65 740.5 50 768Z" fill="url(#pinkg)" stroke="#C93B6C" stroke-width=".6"/><path d="M50 768 L50 751.5" stroke="#E86A95" stroke-width=".6"/><path d="M120 768 Q106.1 771.9 98 760 Q111.9 756.1 120 768Z" fill="url(#pinkg)" stroke="#C93B6C" stroke-width=".6"/><path d="M120 768 L113.4 765.6" stroke="#E86A95" stroke-width=".6"/><path d="M120 768 Q128.1 756.1 142 760 Q133.9 771.9 120 768Z" fill="url(#pinkg)" stroke="#C93B6C" stroke-width=".6"/><path d="M120 768 L126.6 765.6" stroke="#E86A95" stroke-width=".6"/><path d="M120 768 Q102.3 764.1 98.4 746.4 Q116.1 750.3 120 768Z" fill="url(#pinkg)" stroke="#C93B6C" stroke-width=".6"/><path d="M120 768 L113.5 761.5" stroke="#E86A95" stroke-width=".6"/><path d="M120 768 Q123.9 750.3 141.6 746.4 Q137.7 764.1 120 768Z" fill="url(#pinkg)" stroke="#C93B6C" stroke-width=".6"/><path d="M120 768 L126.5 761.5" stroke="#E86A95" stroke-width=".6"/><path d="M120 768 Q103.7 754.8 107.7 734.2 Q124 747.4 120 768Z" fill="url(#pinkg)" stroke="#C93B6C" stroke-width=".6"/><path d="M120 768 L116.3 757.9" stroke="#E86A95" stroke-width=".6"/><path d="M120 768 Q116 747.4 132.3 734.2 Q136.3 754.8 120 768Z" fill="url(#pinkg)" stroke="#C93B6C" stroke-width=".6"/><path d="M120 768 L123.7 757.9" stroke="#E86A95" stroke-width=".6"/><path d="M120 768 Q109.2 748.2 120 728.4 Q130.8 748.2 120 768Z" fill="url(#pinkg)" stroke="#C93B6C" stroke-width=".6"/><path d="M120 768 L120 756.1" stroke="#E86A95" stroke-width=".6"/><path d="M480 768 Q466.1 771.9 458 760 Q471.9 756.1 480 768Z" fill="url(#pinkg)" stroke="#C93B6C" stroke-width=".6"/><path d="M480 768 L473.4 765.6" stroke="#E86A95" stroke-width=".6"/><path d="M480 768 Q488.1 756.1 502 760 Q493.9 771.9 480 768Z" fill="url(#pinkg)" stroke="#C93B6C" stroke-width=".6"/><path d="M480 768 L486.6 765.6" stroke="#E86A95" stroke-width=".6"/><path d="M480 768 Q462.3 764.1 458.4 746.4 Q476.1 750.3 480 768Z" fill="url(#pinkg)" stroke="#C93B6C" stroke-width=".6"/><path d="M480 768 L473.5 761.5" stroke="#E86A95" stroke-width=".6"/><path d="M480 768 Q483.9 750.3 501.6 746.4 Q497.7 764.1 480 768Z" fill="url(#pinkg)" stroke="#C93B6C" stroke-width=".6"/><path d="M480 768 L486.5 761.5" stroke="#E86A95" stroke-width=".6"/><path d="M480 768 Q463.7 754.8 467.7 734.2 Q484 747.4 480 768Z" fill="url(#pinkg)" stroke="#C93B6C" stroke-width=".6"/><path d="M480 768 L476.3 757.9" stroke="#E86A95" stroke-width=".6"/><path d="M480 768 Q476 747.4 492.3 734.2 Q496.3 754.8 480 768Z" fill="url(#pinkg)" stroke="#C93B6C" stroke-width=".6"/><path d="M480 768 L483.7 757.9" stroke="#E86A95" stroke-width=".6"/><path d="M480 768 Q469.2 748.2 480 728.4 Q490.8 748.2 480 768Z" fill="url(#pinkg)" stroke="#C93B6C" stroke-width=".6"/><path d="M480 768 L480 756.1" stroke="#E86A95" stroke-width=".6"/><path d="M550 768 Q530.7 773.4 519.5 756.9 Q538.7 751.4 550 768Z" fill="url(#pinkg)" stroke="#C93B6C" stroke-width=".6"/><path d="M550 768 L540.8 764.7" stroke="#E86A95" stroke-width=".6"/><path d="M550 768 Q561.3 751.4 580.5 756.9 Q569.3 773.4 550 768Z" fill="url(#pinkg)" stroke="#C93B6C" stroke-width=".6"/><path d="M550 768 L559.2 764.7" stroke="#E86A95" stroke-width=".6"/><path d="M550 768 Q525.4 762.5 519.9 737.9 Q544.5 743.4 550 768Z" fill="url(#pinkg)" stroke="#C93B6C" stroke-width=".6"/><path d="M550 768 L541 759" stroke="#E86A95" stroke-width=".6"/><path d="M550 768 Q555.5 743.4 580.1 737.9 Q574.6 762.5 550 768Z" fill="url(#pinkg)" stroke="#C93B6C" stroke-width=".6"/><path d="M550 768 L559 759" stroke="#E86A95" stroke-width=".6"/><path d="M550 768 Q527.4 749.6 532.9 721 Q555.5 739.4 550 768Z" fill="url(#pinkg)" stroke="#C93B6C" stroke-width=".6"/><path d="M550 768 L544.9 753.9" stroke="#E86A95" stroke-width=".6"/><path d="M550 768 Q544.5 739.4 567.1 721 Q572.6 749.6 550 768Z" fill="url(#pinkg)" stroke="#C93B6C" stroke-width=".6"/><path d="M550 768 L555.1 753.9" stroke="#E86A95" stroke-width=".6"/><path d="M550 768 Q535 740.5 550 713 Q565 740.5 550 768Z" fill="url(#pinkg)" stroke="#C93B6C" stroke-width=".6"/><path d="M550 768 L550 751.5" stroke="#E86A95" stroke-width=".6"/></svg>